# xmcd
#
# Track frame offsets:
#	150
#	29831
#	47381
#	84749
#	101806
#	138617
#	156859
#
# Disc length: 2461 seconds
#
# Revision: 0
# Processed by: cddbd v1.5.2PL0 Copyright (c) Steve Scherf et al.
# Submitted via: audiograbber 1.83.01
#
DISCID=5d099b07
DTITLE=Talla 2XLC feat. Naama Hillman - No Inbetween
DYEAR=2007
DGENRE=Trance
TTITLE0=No Inbetween (Original)
TTITLE1=No Inbetween (Single)
TTITLE2=No Inbetween (John O'Callaghan Remix)
TTITLE3=No Inbetween (John O'Callaghan Single)
TTITLE4=No Inbetween (Duderstadt Progressive Dub)
TTITLE5=No Inbetween (Duderstadt Progressive Radio Dub)
TTITLE6=No Inbetween (Titus1 and Tazix Remix)
EXTD=
EXTT0=
EXTT1=
EXTT2=
EXTT3=
EXTT4=
EXTT5=
EXTT6=
PLAYORDER=
